<svg width="371" height="512" viewBox="0 0 371 512" fill="none" xmlns="http://www.w3.org/2000/svg">
<path d="M185.427 0C83.182 0 0 83.182 0 185.426C0 312.314 165.939 498.593 173.004 506.461C179.64 513.852 191.226 513.839 197.85 506.461C204.915 498.593 370.854 312.314 370.854 185.426C370.852 83.182 287.671 0 185.427 0ZM185.427 278.719C133.985 278.719 92.135 236.868 92.135 185.426C92.135 133.984 133.986 92.134 185.427 92.134C236.868 92.134 278.718 133.985 278.718 185.427C278.718 236.869 236.868 278.719 185.427 278.719Z" fill="white"/>
<path d="M164.969 209.4H142.364L138.739 343.436C138.687 344.927 138.938 346.413 139.477 347.803C140.015 349.194 140.83 350.461 141.873 351.528C142.938 352.633 144.216 353.511 145.63 354.107C147.045 354.704 148.565 355.008 150.1 355H157.233C158.768 355.008 160.289 354.704 161.703 354.107C163.117 353.511 164.395 352.633 165.461 351.528C166.501 350.465 167.315 349.201 167.854 347.814C168.392 346.427 168.644 344.946 168.594 343.459L164.969 209.4Z" fill="white"/>
<path d="M168.6 131C167.61 131 166.66 131.393 165.96 132.093C165.26 132.794 164.867 133.743 164.867 134.733V172.067H157.4V134.733C157.4 133.743 157.007 132.794 156.306 132.093C155.606 131.393 154.657 131 153.667 131C152.676 131 151.727 131.393 151.027 132.093C150.327 132.794 149.933 133.743 149.933 134.733V172.067H142.467V134.733C142.467 133.743 142.073 132.794 141.373 132.093C140.673 131.393 139.723 131 138.733 131C137.743 131 136.794 131.393 136.093 132.093C135.393 132.794 135 133.743 135 134.733V187.208C135.003 190.106 135.678 192.963 136.971 195.556L140.159 201.933H167.174L170.363 195.556C171.655 192.963 172.33 190.106 172.333 187.208V134.733C172.333 133.743 171.94 132.794 171.24 132.093C170.54 131.393 169.59 131 168.6 131V131Z" fill="white"/>
<path d="M209.667 231.8H232.067V134.734C232.067 133.743 231.674 132.794 230.973 132.094C230.273 131.394 229.324 131 228.334 131C220.842 131 214.439 136.209 209.303 146.48C205.591 153.904 202.44 164.155 199.937 176.95C195.731 198.444 194.776 219.55 194.737 220.438C194.7 221.297 194.96 222.144 195.475 222.833C195.99 223.523 196.727 224.013 197.562 224.222L209.667 227.248V231.8Z" fill="white"/>
<path d="M232.198 239.267H209.536L205.94 343.436C205.887 344.927 206.138 346.413 206.677 347.803C207.215 349.194 208.03 350.461 209.073 351.528C210.138 352.633 211.417 353.511 212.831 354.107C214.245 354.704 215.765 355.008 217.3 355H224.434C225.968 355.008 227.489 354.704 228.903 354.107C230.317 353.511 231.596 352.633 232.661 351.528C233.704 350.461 234.519 349.192 235.058 347.8C235.596 346.409 235.846 344.922 235.794 343.43L232.198 239.267Z" fill="white"/>
</svg>
